<?xml version="1.0" encoding="UTF-8" standalone="no" ?>
<!DOCTYPE svg PUBLIC "-//W3C//DTD SVG 1.1//EN" "http://www.w3.org/Graphics/SVG/1.1/DTD/svg11.dtd">
<svg xmlns="http://www.w3.org/2000/svg" xmlns:xlink="http://www.w3.org/1999/xlink" version="1.1" width="111" height="111" viewBox="0 0 111 111" xml:space="preserve">
<desc>Created with Fabric.js 3.6.6</desc>
<defs>
</defs>
<g transform="matrix(2.48 0 0 2.54 53.01 58.79)"  >
<g style=""   >
		<g transform="matrix(1 0 0 1 0 16.13)"  >
<radialGradient id="SVGID_rg1_16" gradientUnits="userSpaceOnUse" gradientTransform="matrix(1.6 0 0 0.55 -0.18 4.84)"  cx="15.115" cy="63.965" r="12.289" fx="15.115" fy="63.965">
<stop offset="0%" style="stop-color:rgb(0,0,0);stop-opacity: 1"/>
<stop offset="100%" style="stop-color:rgb(0,0,0);stop-opacity: 0"/>
</radialGradient>
<path style="stroke: none; stroke-width: 1; stroke-dasharray: none; stroke-linecap: butt; stroke-dashoffset: 0; stroke-linejoin: miter; stroke-miterlimit: 4; fill: url(#SVGID_rg1_16); fill-rule: nonzero; opacity: 1;"  transform=" translate(-24, -40.13)" d="m 43.6618 40.1289 a 19.6618 6.7805 0 0 1 -39.3236 0 a 19.6618 6.7805 0 1 1 39.3236 0 z" stroke-linecap="round" />
</g>
		<g transform="matrix(1 0 0 1 5.67 4.33)"  >
<linearGradient id="SVGID_lg8_17" gradientUnits="userSpaceOnUse" gradientTransform="matrix(0.35 0 0 0.35 -16.39 -18)"  x1="119.191" y1="89.13" x2="116.965" y2="169.279">
<stop offset="0%" style="stop-color:rgb(255,226,83);stop-opacity: 1"/>
<stop offset="100%" style="stop-color:rgb(255,202,28);stop-opacity: 1"/>
</linearGradient>
<path style="stroke: none; stroke-width: 1; stroke-dasharray: none; stroke-linecap: butt; stroke-dashoffset: 0; stroke-linejoin: miter; stroke-miterlimit: 4; fill: url(#SVGID_lg8_17); fill-rule: nonzero; opacity: 1;"  transform=" translate(-29.67, -28.33)" d="m 34.0804 37.5795 c 0 2.7319 -2.371 4.1156 -4.7774 4.8057 c -3.6202 1.0404 -6.5255 0.8811 -9.5511 0 c -2.5268 -0.7362 -4.7774 -2.2402 -4.7774 -4.8057 l 0 -9.0132 c 0 -2.594 2.1621 -4.8092 4.7774 -4.8092 l 9.3984 -0.6111 c 3.1814 0 5.2606 -1.9858 5.2606 -5.245 l 0.8655 -4.3569 l 3.5813 0 c 2.7814 0 4.0909 2.0667 4.7774 4.8056 c 0.9555 3.8043 0.9978 6.6495 0 9.615 c -0.9661 2.8805 -2 4.8056 -4.7774 4.8056 l -4.7773 0 l -9.5512 0 l 0 -0.02 c 8.2424 0.02 9.5512 -3.3164 9.5512 4.8281 z" stroke-linecap="round" />
</g>
		<g transform="matrix(1 0 0 1 5.9 14.18)"  >
<path style="stroke: none; stroke-width: 1; stroke-dasharray: none; stroke-linecap: butt; stroke-dashoffset: 0; stroke-linejoin: miter; stroke-miterlimit: 4; fill: rgb(255,255,255); fill-rule: nonzero; opacity: 1;"  transform=" translate(-29.9, -38.18)" d="m 28.1104 38.1776 c 0 -0.9944 0.8033 -1.8013 1.7906 -1.8013 c 1 0 1.7906 0.8069 1.7906 1.8013 c 0 0.9979 -0.7997 1.8047 -1.7906 1.8047 c -0.9873 0 -1.7906 -0.8068 -1.7906 -1.8047 z" stroke-linecap="round" />
</g>
		<g transform="matrix(1 0 0 1 5.59 -0.35)"  >
<linearGradient id="SVGID_lg7_18" gradientUnits="userSpaceOnUse" gradientTransform="matrix(0.35 0 0 0.35 -6.3 -7.95)"  x1="94.693" y1="112.511" x2="94.693" y2="64.053">
<stop offset="0%" style="stop-color:rgb(255,255,255);stop-opacity: 1"/>
<stop offset="100%" style="stop-color:rgb(255,255,255);stop-opacity: 0.165"/>
</linearGradient>
<path style="stroke: none; stroke-width: 1; stroke-dasharray: none; stroke-linecap: butt; stroke-dashoffset: 0; stroke-linejoin: miter; stroke-miterlimit: 4; fill: url(#SVGID_lg7_18); fill-rule: nonzero; opacity: 0.837;"  transform=" translate(-29.59, -23.65)" d="m 35.2662 13.5436 l 0 4.2265 C 31.8551 23.767 25.375 23.7787 19.939 23.7787 l -2.017 0.2052 c -2.8342 2.4364 -2.9244 6.3463 -2.9223 9.7756 c 6.2502 -6.9742 12.9174 -7.5004 16.2436 -7.4854 c 6.6377 0.029 9.7638 -1.6029 12.9339 -5.1939 c -0.016 -0.07 0.016 -0.132 0 -0.2037 c -0.1222 -0.8 -0.3362 -1.6544 -0.5601 -2.546 c -0.3218 -1.2839 -0.7428 -2.4141 -1.4257 -3.2589 c -0.016 -0.016 -0.038 -0.034 -0.051 -0.05 c 0 0 -0.042 0 -0.05 0 c -0.023 -0.028 -0.028 -0.075 -0.05 -0.1011 c -0.047 -0.034 -0.052 -0.07 -0.101 -0.101 c -0.016 -0.016 -0.039 0.016 -0.05 0 C 41.1653 14.3502 40.2858 14 39.3942 13.8519 C 38.5861 13.7183 37.775 13.6165 36.95 13.5464 l -0.5092 0 l -1.1711 0 z" stroke-linecap="round" />
</g>
		<g transform="matrix(1 0 0 1 5.65 4.33)"  >
<path style="stroke: rgb(187,148,0); stroke-width: 1.63; stroke-dasharray: none; stroke-linecap: butt; stroke-dashoffset: 0; stroke-linejoin: miter; stroke-miterlimit: 4; fill: none; fill-rule: nonzero; opacity: 1;"  transform=" translate(-29.65, -28.33)" d="m 34.559 37.579 c 0 2.732 -2.8497 4.116 -5.256 4.806 c -3.62 1.04 -6.525 0.881 -9.551 0 c -2.527 -0.736 -4.801 -2.24 -4.805 -4.805 l -0.016 -9.258 c -0.01 -3.073 2.302 -5.01 4.849 -5 l 8.4667 0.015 c 3.25 0 6.41 -3.3 6.401 -6.55 l 0 -3.237 l 4.21 0 c 2.7814 0 4.09 2.067 4.777 4.806 c 0.956 3.804 1 6.649 0 9.615 c -0.966 2.88 -2 5.1476 -4.777 5.148 l -4.3 0 l -10.03 0 l 0 -0.02 l 10.03 0.034 z" stroke-linecap="round" />
</g>
		<g transform="matrix(1 0 0 1 5.64 4.33)"  >
<path style="stroke: none; stroke-width: 1; stroke-dasharray: none; stroke-linecap: butt; stroke-dashoffset: 0; stroke-linejoin: miter; stroke-miterlimit: 4; fill: rgb(255,255,255); fill-rule: nonzero; opacity: 0.384;"  transform=" translate(-29.64, -28.33)" d="m 35.4653 14.3584 l 0 2.3933 c 0 3.7245 -3.4965 7.3757 -7.4809 7.3757 l -8.2491 0 c -2.8506 0 -4.0184 2.1569 -4.0042 4.4379 l 0.056 9.0129 c 0.01 1.0446 0.4 1.8235 1.148 2.4951 c 0.748 0.6715 1.8726 1.183 3.0553 1.5277 c 2.9164 0.8492 5.576 1.0022 9.0638 0 c 1.1327 -0.3248 2.6394 -0.9401 3.3976 -1.5964 c 0.7581 -0.6565 1.3077 -1.2961 1.3077 -2.4264 l 0 -3.6298 l -10.052 0 l 0 -1.6795 l 15.1743 0.05 c 1.2008 0 1.788 -0.4724 2.3844 -1.1633 c 0.5964 -0.691 1.1149 -2.0469 1.5874 -3.456 c 0.9456 -2.8096 0.9336 -5.4491 0 -9.1658 c -0.3252 -1.2978 -0.7976 -2.3461 -1.4257 -3.0552 c -0.628 -0.7091 -1.357 -1.1202 -2.5461 -1.1202 z m 1.6294 1.6294 l 1.7867 0 c 0.5202 0 1.1993 0.4194 1.324 0.5602 c 0.3625 0.4093 0.78 1.2386 1.0694 2.3932 c 0.8895 3.5416 0.8915 5.7515 0.05 8.2491 c -0.4517 1.347 -0.9205 2.6142 -1.2729 3 c -0.3184 0.3395 -1 0.5093 -1.1713 0.5093 l -4.7865 -0.051 l -12.0173 0 l 0 4.9384 l 10.052 0 l 0 2 c 0 0.727 -0.9733 1.1789 -1.1408 1.3239 c -0.4872 0.4219 -1.3508 0.8359 -2.3423 1.1202 c -3.223 0.9264 -5.5 0.7859 -8.1984 0 c -1.0211 -0.2975 -1.9061 -0.7339 -2.4069 -1.1595 c -0.5008 -0.4256 -0.5316 -0.7741 -0.6238 -1.285 l -0.056 -9.0129 c -0.013 -2.0224 0.6457 -2.8084 2.3748 -2.8084 l 8.2491 0 c 4.9233 0 9.1103 -4.3502 9.1103 -9.0052 c 0.0001 -0.2574 -0.0001 -0.5149 -0.0001 -0.7723 z" stroke-linecap="round" />
</g>
		<g transform="matrix(1 0 0 1 -5.58 -7.32)"  >
<linearGradient id="SVGID_lg6_19" gradientUnits="userSpaceOnUse" gradientTransform="matrix(0.35 0 0 0.35 -17.38 -19.41)"  x1="59.728" y1="102" x2="142.62" y2="102">
<stop offset="0%" style="stop-color:rgb(55,120,174);stop-opacity: 1"/>
<stop offset="100%" style="stop-color:rgb(54,108,153);stop-opacity: 1"/>
</linearGradient>
<path style="stroke: none; stroke-width: 1; stroke-dasharray: none; stroke-linecap: butt; stroke-dashoffset: 0; stroke-linejoin: miter; stroke-miterlimit: 4; fill: url(#SVGID_lg6_19); fill-rule: nonzero; opacity: 1;"  transform=" translate(-18.42, -16.68)" d="m 13.9847 7.3199 c 0 -2.7319 0.7324 -4.2182 4.7772 -4.926 c 2.7462 -0.4813 6.2673 -0.5414 9.5513 0 c 2.5939 0.4282 4.7774 2.3604 4.7774 4.926 l 0 9.0134 c 0 2.6434 -2.1198 4.8091 -4.7774 4.8091 l -8.6621 0.4788 c -3.2414 0 -6.589 2.8321 -6.589 5.957 l -0.2736 3.777 l -3.284 0 c -2.7779 0 -4.3951 -2.0029 -5.0745 -4.8056 c -0.9166 -3.7651 -0.8776 -6.0088 0 -9.6147 c 0.7608 -3.1461 3.192 -4.8058 5.7 -4.8058 l 3.5848 0 c 0 0 8.9448 -0.035 0 -0.032 l 0 -4.7771 l 0 0 z" stroke-linecap="round" />
</g>
		<g transform="matrix(1 0 0 1 -5.84 -17.28)"  >
<path style="stroke: none; stroke-width: 1; stroke-dasharray: none; stroke-linecap: butt; stroke-dashoffset: 0; stroke-linejoin: miter; stroke-miterlimit: 4; fill: rgb(255,255,255); fill-rule: nonzero; opacity: 1;"  transform=" translate(-18.16, -6.72)" d="m 16.3733 6.7218 c 0 -1 0.8 -1.8048 1.7906 -1.8048 c 0.9873 0 1.7907 0.8068 1.7907 1.8048 c 0 0.9944 -0.8034 1.8012 -1.7907 1.8012 c -0.9908 0 -1.7906 -0.8068 -1.7906 -1.8012 z" stroke-linecap="round" />
</g>
		<g transform="matrix(1 0 0 1 -5.57 -11.77)"  >
<linearGradient id="SVGID_lg5_20" gradientUnits="userSpaceOnUse" gradientTransform="matrix(0.35 0 0 0.35 -17.38 -19.41)"  x1="94.693" y1="112.511" x2="94.693" y2="64.053">
<stop offset="0%" style="stop-color:rgb(255,255,255);stop-opacity: 1"/>
<stop offset="100%" style="stop-color:rgb(255,255,255);stop-opacity: 0.165"/>
</linearGradient>
<path style="stroke: none; stroke-width: 1; stroke-dasharray: none; stroke-linecap: butt; stroke-dashoffset: 0; stroke-linejoin: miter; stroke-miterlimit: 4; fill: url(#SVGID_lg5_20); fill-rule: nonzero; opacity: 0.377;"  transform=" translate(-18.43, -12.23)" d="M 22.7173 1.9955 C 21.3039 2.0297 19.9469 2.1923 18.7455 2.4028 C 14.7007 3.1106 14.01 4.6102 14.01 7.3421 l -0.2952 4.787 l -3.3203 -0.0003 c -2.7779 0 -5.1968 1.6406 -5.9576 4.7864 c -0.5165 2.1225 -0.7504 3.7842 -0.6621 5.5504 c 6.2924 -7.1319 13.0442 -7.6531 16.3965 -7.638 c 6.6376 0.029 9.7637 -1.6029 12.9338 -5.1939 l 0 -2.2914 c 0 -2.5655 -2.1926 -4.511 -4.7865 -4.9392 C 26.4714 2.0983 24.5345 1.9515 22.7173 1.9955 z" stroke-linecap="round" />
</g>
		<g transform="matrix(1 0 0 1 -5.67 -7.31)"  >
<path style="stroke: rgb(39,78,112); stroke-width: 1.63; stroke-dasharray: none; stroke-linecap: butt; stroke-dashoffset: 0; stroke-linejoin: miter; stroke-miterlimit: 4; fill: none; fill-rule: nonzero; opacity: 1;"  transform=" translate(-18.33, -16.69)" d="m 18.696 2.6271 c 3.6201 -1.0404 6.5255 -0.8811 9.551 0 c 2.5268 0.7361 4.7787 2.24 4.7774 4.8057 l 0 9.7315 c 0 1.3662 -1.9746 4.5293 -4.7726 4.5293 l -8.8988 0 c -2.4983 0 -5.997 2.7217 -5.997 5.981 l 0 3.7937 l -4.21 0 c -2.7815 0 -4.0909 -2.0667 -4.7774 -4.8058 c -0.9555 -3.8041 -1 -6.6493 0 -9.6148 c 0.9661 -2.8806 2 -5.1477 4.7774 -5.1477 l 4.2985 0 l 10.03 0 l 0 0.019 l -10.03 -0.034 l 0.019 -4.8733 c -0.026 -1.9965 2.4146 -3.5524 5.2323 -4.3845 z" stroke-linecap="round" />
</g>
		<g transform="matrix(1 0 0 1 -5.65 -7.32)"  >
<path style="stroke: none; stroke-width: 1; stroke-dasharray: none; stroke-linecap: butt; stroke-dashoffset: 0; stroke-linejoin: miter; stroke-miterlimit: 4; fill: rgb(255,255,255); fill-rule: nonzero; opacity: 0.165;"  transform=" translate(-18.35, -16.68)" d="m 12.5337 30.6538 l 0 -2.796 c 0 -3.7246 3.3953 -7.0287 7.0461 -7.0287 l 8.6839 0 c 2.1549 0 4.024 -2.2411 4.0042 -4.3821 L 32.1845 7.434 C 32.1748 6.3895 31.8123 5.6105 31.0642 4.9389 C 30.3163 4.2673 29.1916 3.7558 28.009 3.4113 c -2.9166 -0.8494 -5.5762 -1.0023 -9.0639 0 c -1.1326 0.3248 -2.6396 0.94 -3.3976 1.5964 c -0.7582 0.6564 -1.3076 1.296 -1.3076 2.4263 l 0 3.6298 l 10.0519 0 l 0 1.6804 l -15.1743 -0.051 c -1.2 0 -1.788 0.4724 -2.3844 1.1634 c -0.5964 0.6908 -1.1149 2.0467 -1.5874 3.4559 c -0.9456 2.8096 -0.9335 5.449 0 9.1657 c 0.3252 1.2978 0.7976 2.3461 1.4258 3.0552 c 0.628 0.7092 1.357 1.1203 2.546 1.1203 l 3.4162 0 z m -1.6295 -1.6295 l -1.7867 0 c -0.52 0 -1.2 -0.4194 -1.3239 -0.56 C 7.431 28.0549 7.0135 27.2255 6.7241 26.0709 C 5.8346 22.5294 5.8327 20.3196 6.6736 17.8218 C 7.1253 16.475 7.5941 15.2077 7.9466 14.8319 C 8.265 14.4926 8.9375 14.3227 9.1178 14.3227 l 16.8038 0.051 l 0 -4.9394 l -10.0519 0 l 0 -2 c 0 -0.727 0.9732 -1.1789 1.1407 -1.3239 c 0.4873 -0.4219 1.3509 -0.8359 2.3424 -1.12 c 3.2229 -0.9262 5.5 -0.7858 8.1983 0 c 1.0212 0.2975 1.9061 0.7339 2.3932 1.1712 c 0.1733 0.1352 0.2646 0.2973 0.4078 0.4582 c 0.1987 0.237 0.1552 0.55023 0.2011 0.8147 l 0 9.013 c 0 1.2357 -1.0565 2.7527 -2.2913 2.7527 l -8.6839 0 c -4.5897 0 -8.6756 4.0029 -8.6756 8.6581 c 0 0.3875 0 1.166 0 1.166 z" stroke-linecap="round" />
</g>
</g>
</g>
</svg>